<?xml version="1.0" encoding="UTF-8"?>
<svg width="69px" height="46px" viewBox="0 0 69 46" version="1.1" xmlns="http://www.w3.org/2000/svg" xmlns:xlink="http://www.w3.org/1999/xlink">
    <g id="Page-1" stroke="none" stroke-width="1" fill="none" fill-rule="evenodd">
        <g id="Adventure-Lovers-1440" transform="translate(-60.000000, -221.000000)" fill="#FFFFFF" fill-rule="nonzero">
            <g id="ic_quotes" transform="translate(94.500000, 244.000000) scale(1, -1) translate(-94.500000, -244.000000) translate(60.000000, 221.000000)">
                <path d="M33.5933721,16.9351379 C33.5933721,7.99210345 26.2601163,0.742344828 17.2122907,0.742344828 C8.16446512,0.742344828 1.59743023,7.74227586 0.831209302,16.6535862 C-0.338581395,30.2513448 10.1117093,41.6363448 22.7988837,45.2584483 C18.4743488,42.6737241 15.4576047,38.1784138 14.9545465,32.9502759 C15.695093,33.0541724 16.4444651,33.127931 17.2122907,33.127931 C26.2601163,33.127931 33.5933721,25.8789655 33.5933721,16.9351379 Z" id="Shape"></path>
                <path d="M68.1976744,16.9351379 C68.1976744,7.99210345 60.8644186,0.742344828 51.8157907,0.742344828 C42.7687674,0.742344828 36.2009302,7.74227586 35.433907,16.6535862 C34.2641163,30.2513448 44.714407,41.6363448 57.4023837,45.2584483 C53.0778488,42.6737241 50.061907,38.1784138 49.5580465,32.9502759 C50.298593,33.0541724 51.0487674,33.127931 51.8157907,33.127931 C60.8644186,33.127931 68.1976744,25.8789655 68.1976744,16.9351379 Z" id="Shape"></path>
            </g>
        </g>
    </g>
</svg>
