<?xml version="1.0" encoding="UTF-8"?>
<svg width="32px" height="33px" viewBox="0 0 32 33" version="1.1" xmlns="http://www.w3.org/2000/svg" xmlns:xlink="http://www.w3.org/1999/xlink">
    <!-- Generator: sketchtool 50.2 (55047) - http://www.bohemiancoding.com/sketch -->
    <title>AEE86E59-B0F4-4B67-BD42-92A2FE9A96AC_White</title>
    <desc>Created with sketchtool.</desc>
    <defs></defs>
    <g id="Page-1" stroke="none" stroke-width="1" fill="none" fill-rule="evenodd" opacity="0.800000012">
        <g id="Adventure-Lovers-1440" transform="translate(-606.000000, -2960.000000)" fill="#FFFFFF">
            <g id="Footer" transform="translate(0.000000, 2890.000000)">
                <g id="social">
                    <g transform="translate(606.000000, 70.000000)">
                        <g id="Facebook">
                            <path d="M0,16.2622951 C0,7.28087707 7.16344357,0 16,0 C24.8365564,0 32,7.28087707 32,16.2622951 C32,25.2437131 24.8365564,32.5245902 16,32.5245902 C7.16344357,32.5245902 0,25.2437131 0,16.2622951 Z M17.1343701,25.2820935 L17.1343701,16.4345464 L19.5372879,16.4345464 L19.8557264,13.3856327 L17.1343701,13.3856327 L17.1384526,11.859622 C17.1384526,11.0644183 17.2127889,10.6383301 18.3365094,10.6383301 L19.8387158,10.6383301 L19.8387158,7.58907104 L17.4354577,7.58907104 C14.5487583,7.58907104 13.532715,9.06812222 13.532715,11.5554212 L13.532715,13.385978 L11.7333333,13.385978 L11.7333333,16.4348917 L13.532715,16.4348917 L13.532715,25.2820935 L17.1343701,25.2820935 Z" id="Combined-Shape"></path>
                        </g>
                    </g>
                </g>
            </g>
        </g>
    </g>
</svg>