<?xml version="1.0" encoding="UTF-8"?>
<svg width="32px" height="33px" viewBox="0 0 32 33" version="1.1" xmlns="http://www.w3.org/2000/svg" xmlns:xlink="http://www.w3.org/1999/xlink">
    <!-- Generator: sketchtool 50.2 (55047) - http://www.bohemiancoding.com/sketch -->
    <title>93FEAA1C-6DB8-46EA-BF00-7194A916734F_White</title>
    <desc>Created with sketchtool.</desc>
    <defs></defs>
    <g id="Page-1" stroke="none" stroke-width="1" fill="none" fill-rule="evenodd" opacity="0.800000012">
        <g id="Adventure-Lovers-1440" transform="translate(-704.000000, -2960.000000)" fill="#FFFFFF">
            <g id="Footer" transform="translate(0.000000, 2890.000000)">
                <g id="social">
                    <g transform="translate(606.000000, 70.000000)">
                        <g id="Instagram" transform="translate(98.000000, 0.000000)">
                            <path d="M0,16.2622951 C0,7.28087707 7.16344357,0 16,0 C24.8365564,0 32,7.28087707 32,16.2622951 C32,25.2437131 24.8365564,32.5245902 16,32.5245902 C7.16344357,32.5245902 0,25.2437131 0,16.2622951 Z M16.0008,7.58907104 C13.6832648,7.58907104 13.3924173,7.5993706 12.4821856,7.64147231 C11.5737317,7.68375472 10.9536363,7.82993621 10.4110529,8.04442004 C9.8498026,8.26595095 9.37370875,8.56228919 8.8993927,9.04456161 C8.42472109,9.52665333 8.1331625,10.010552 7.91449355,10.5808224 C7.70293579,11.1324814 7.55893429,11.7629229 7.51804498,12.6859081 C7.47733344,13.6110616 7.46666667,13.9068578 7.46666667,16.2623854 C7.46666667,18.6179131 7.47697789,18.9126251 7.51822276,19.8377786 C7.56000097,20.7611252 7.70382469,21.391386 7.91467133,21.9428643 C8.13280694,22.5133154 8.42436553,22.9972141 8.89885936,23.4793058 C9.37299764,23.9617589 9.84909148,24.2588199 10.4099862,24.4803508 C10.9529252,24.6948347 11.5731983,24.8410161 12.4814745,24.8832985 C13.3917062,24.9254003 13.6823759,24.9356998 15.9997333,24.9356998 C18.3174464,24.9356998 18.6074049,24.9254003 19.5176366,24.8832985 C20.4260905,24.8410161 21.046897,24.6948347 21.589836,24.4803508 C22.1509085,24.2588199 22.6262912,23.9617589 23.1004295,23.4793058 C23.5751011,22.9972141 23.8666597,22.5133154 24.0853287,21.943045 C24.2951086,21.391386 24.4391101,20.7609445 24.4817772,19.8379593 C24.5226666,18.9128058 24.5333333,18.6179131 24.5333333,16.2623854 C24.5333333,13.9068578 24.5226666,13.6112423 24.4817772,12.6860888 C24.4391101,11.7627422 24.2951086,11.1324814 24.0853287,10.5810031 C23.8666597,10.010552 23.5751011,9.52665333 23.1004295,9.04456161 C22.6257579,8.5621085 22.1510863,8.26577025 21.5893027,8.04442004 C21.045297,7.82993621 20.4248461,7.68375472 19.5163922,7.64147231 C18.6061605,7.5993706 18.3163797,7.58907104 15.9981333,7.58907104 L16.0008,7.58907104 Z" id="Combined-Shape"></path>
                            <path d="M15.2352809,9.15207457 C15.4624833,9.15171318 15.715997,9.15207457 16.0008,9.15207457 C18.2792237,9.15207457 18.549271,9.1603865 19.4490137,9.20194613 C20.2810224,9.24061465 20.7325826,9.3819174 21.0333858,9.50063339 C21.4316121,9.65783721 21.7155262,9.84575903 22.0140182,10.149325 C22.312688,10.452891 22.4975788,10.7420015 22.6526026,11.1467562 C22.7694038,11.4521291 22.9086053,11.911092 22.9464724,12.7567402 C22.9873617,13.6710521 22.9962507,13.945707 22.9962507,16.2603978 C22.9962507,18.5750886 22.9873617,18.8497435 22.9464724,19.7640554 C22.9084275,20.6097036 22.7694038,21.0686665 22.6526026,21.3740394 C22.4979344,21.7787941 22.312688,22.0670011 22.0140182,22.3703864 C21.7153484,22.6739524 21.4317899,22.8618742 21.0333858,23.019078 C20.7329382,23.1383361 20.2810224,23.2792775 19.4490137,23.317946 C18.5494488,23.3595056 18.2792237,23.3685403 16.0008,23.3685403 C13.7221985,23.3685403 13.4521512,23.3595056 12.5525863,23.317946 C11.7205776,23.2789161 11.2690174,23.1376133 10.9680365,23.0188973 C10.5698101,22.8616935 10.2853627,22.6737717 9.98669292,22.3702057 C9.68802314,22.0666397 9.50313232,21.778252 9.34810849,21.3733166 C9.23130727,21.0679437 9.09210582,20.6089808 9.05423876,19.7633326 C9.01334944,18.8490208 9.00517158,18.5743658 9.00517158,16.2582295 C9.00517158,13.9420931 9.01334944,13.6688837 9.05423876,12.7545718 C9.0922836,11.9089237 9.23130727,11.4499608 9.34810849,11.1442265 C9.50277677,10.7394718 9.68802314,10.4503613 9.98669292,10.1467953 C10.2853627,9.84322931 10.5698101,9.6553075 10.9680365,9.49774229 C11.2688396,9.37848421 11.7205776,9.23754285 12.5525863,9.19869363 C13.3397945,9.16255482 13.6448644,9.15171318 15.2352809,9.14990624 L15.2352809,9.15207457 Z M20.5558697,10.5922061 C19.9905305,10.5922061 19.531859,11.0578547 19.531859,11.6326425 C19.531859,12.2072496 19.9905305,12.6734402 20.5558697,12.6734402 C21.1212089,12.6734402 21.5798803,12.2072496 21.5798803,11.6326425 C21.5798803,11.0580354 21.1212089,10.5918448 20.5558697,10.5918448 L20.5558697,10.5922061 Z M16.0008,11.8082771 C13.5806859,11.8082771 11.6185321,13.8025973 11.6185321,16.2623854 C11.6185321,18.7221735 13.5806859,20.7155903 16.0008,20.7155903 C18.4209141,20.7155903 20.3823568,18.7221735 20.3823568,16.2623854 C20.3823568,13.8025973 18.4207363,11.8082771 16.0006222,11.8082771 L16.0008,11.8082771 Z" id="Combined-Shape"></path>
                            <path d="M16.0008,13.3712806 C17.5716608,13.3712806 18.8452741,14.6655921 18.8452741,16.2623854 C18.8452741,17.8589981 17.5716608,19.1534902 16.0008,19.1534902 C14.4297614,19.1534902 13.1563259,17.8589981 13.1563259,16.2623854 C13.1563259,14.6655921 14.4297614,13.3712806 16.0008,13.3712806 L16.0008,13.3712806 Z" id="Shape"></path>
                        </g>
                    </g>
                </g>
            </g>
        </g>
    </g>
</svg>