<?xml version="1.0" encoding="UTF-8"?>
<svg width="32px" height="33px" viewBox="0 0 32 33" version="1.1" xmlns="http://www.w3.org/2000/svg" xmlns:xlink="http://www.w3.org/1999/xlink">
    <!-- Generator: sketchtool 50.2 (55047) - http://www.bohemiancoding.com/sketch -->
    <title>85B07612-AA00-46E0-B722-B9FB65D54032_White</title>
    <desc>Created with sketchtool.</desc>
    <defs></defs>
    <g id="Page-1" stroke="none" stroke-width="1" fill="none" fill-rule="evenodd" opacity="0.800000012">
        <g id="Adventure-Lovers-1440" transform="translate(-802.000000, -2960.000000)" fill="#FFFFFF">
            <g id="Footer" transform="translate(0.000000, 2890.000000)">
                <g id="social">
                    <g transform="translate(606.000000, 70.000000)">
                        <g id="Youtube" transform="translate(196.000000, 0.000000)">
                            <path d="M0,16.2622951 C0,7.28087707 7.05619216,0 15.7604473,0 C24.4647024,0 31.5208945,7.28087707 31.5208945,16.2622951 C31.5208945,25.2437131 24.4647024,32.5245902 15.7604473,32.5245902 C7.05619216,32.5245902 0,25.2437131 0,16.2622951 Z M23.9632787,12.9888823 C23.9632787,12.9888823 23.799082,11.7674219 23.296,11.2295361 C22.6575738,10.5232495 21.9420328,10.5199258 21.6141639,10.4789335 C19.2650492,10.2994536 15.741377,10.2994536 15.741377,10.2994536 L15.7340328,10.2994536 C15.7340328,10.2994536 12.2103607,10.2994536 9.8612459,10.4789335 C9.53285246,10.5199258 8.81783607,10.5232495 8.17888525,11.2295361 C7.67580328,11.7674219 7.51213115,12.9888823 7.51213115,12.9888823 C7.51213115,12.9888823 7.3442623,14.4236136 7.3442623,15.8577909 L7.3442623,17.2027823 C7.3442623,18.6375136 7.51213115,20.0716909 7.51213115,20.0716909 C7.51213115,20.0716909 7.67580328,21.2931513 8.17888525,21.8310371 C8.81783607,22.5373237 9.65665574,22.5151657 10.0301639,22.5888411 C11.3731148,22.7251129 15.7377049,22.7672131 15.7377049,22.7672131 C15.7377049,22.7672131 19.2650492,22.7616736 21.6141639,22.5821937 C21.9420328,22.5406474 22.6575738,22.5373237 23.296,21.8310371 C23.799082,21.2931513 23.9632787,20.0716909 23.9632787,20.0716909 C23.9632787,20.0716909 24.1311475,18.6375136 24.1311475,17.2027823 L24.1311475,15.8577909 C24.1311475,14.4236136 23.9632787,12.9888823 23.9632787,12.9888823 Z" id="Combined-Shape"></path>
                            <polygon id="Path" points="14.004459 18.8325041 14.0039344 13.8519369 18.539541 16.3508067"></polygon>
                        </g>
                    </g>
                </g>
            </g>
        </g>
    </g>
</svg>